<svg width="52" height="52" viewBox="0 0 52 52" fill="none" xmlns="http://www.w3.org/2000/svg">
    <path d="M37.625 5.17732C34.1316 3.15655 30.0758 2 25.75 2C12.6332 2 2 12.6332 2 25.75C2 29.5493 2.8921 33.14 4.47822 36.3247C4.89973 37.1709 5.04002 38.1382 4.79566 39.0514L3.38109 44.3384C2.76701 46.6334 4.86665 48.7329 7.16171 48.1189L12.4486 46.7044C13.3618 46.46 14.3291 46.6004 15.1754 47.0217C18.3599 48.6079 21.9507 49.5 25.75 49.5C38.8666 49.5 49.5 38.8666 49.5 25.75C49.5 21.4242 48.3434 17.3683 46.3227 13.875" stroke="white" stroke-width="4" stroke-linecap="round"/>
    </svg>
    