<svg width="53" height="53" viewBox="0 0 53 53" fill="none"
    xmlns="http://www.w3.org/2000/svg">
    <path fill-rule="evenodd" clip-rule="evenodd" d="M0.96875 17C0.96875 8.14619 8.14619 0.96875 17 0.96875H36C44.8538 0.96875 52.0312 8.14619 52.0312 17V36C52.0312 44.8538 44.8538 52.0312 36 52.0312H17C8.14619 52.0312 0.96875 44.8538 0.96875 36V17ZM17 4.53125C10.1137 4.53125 4.53125 10.1137 4.53125 17V36C4.53125 42.8863 10.1137 48.4687 17 48.4687H36C42.8863 48.4687 48.4687 42.8863 48.4687 36V17C48.4687 10.1137 42.8863 4.53125 36 4.53125H17Z" fill="white"/>
    <path fill-rule="evenodd" clip-rule="evenodd" d="M26.5 14.6427C27.4837 14.6427 28.2812 15.4402 28.2812 16.4239V36.5764C28.2812 37.5602 27.4837 38.3577 26.5 38.3577C25.516 38.3577 24.7188 37.5602 24.7188 36.5764V16.4239C24.7188 15.4402 25.5163 14.6427 26.5 14.6427Z" fill="white"/>
    <path fill-rule="evenodd" clip-rule="evenodd" d="M38.375 26.5C38.375 27.4837 37.5775 28.2812 36.5938 28.2812H16.4413C15.4576 28.2812 14.6601 27.4837 14.6601 26.5C14.6601 25.516 15.4576 24.7188 16.4413 24.7188H36.5938C37.5775 24.7188 38.375 25.5163 38.375 26.5Z" fill="white"/>
</svg>
    