<svg width="53" height="53" viewBox="0 0 53 53" fill="none" xmlns="http://www.w3.org/2000/svg">
    <path d="M19.375 38.9688C18.3913 38.9688 17.5938 39.7663 17.5938 40.75C17.5938 41.7337 18.3913 42.5312 19.375 42.5312H33.625C34.6087 42.5312 35.4062 41.7337 35.4062 40.75C35.4062 39.7663 34.6087 38.9688 33.625 38.9688H19.375Z" fill="white"/>
    <path fill-rule="evenodd" clip-rule="evenodd" d="M26.5 0.96875C24.8183 0.96875 23.2902 1.45045 21.6326 2.25657C20.0301 3.03583 18.179 4.18471 15.8668 5.61976L10.9587 8.66589C8.77084 10.0237 7.01892 11.1109 5.66864 12.145C4.27036 13.2159 3.19638 14.3065 2.42061 15.7237C1.64646 17.138 1.29785 18.6429 1.1307 20.4217C0.968727 22.1454 0.968727 24.2535 0.968751 26.8971V30.7273C0.968727 35.2488 0.968703 38.8182 1.33141 41.6088C1.7035 44.4716 2.48533 46.7827 4.25186 48.6098C6.0265 50.4457 8.28484 51.2658 11.0806 51.6546C13.7902 52.0312 17.2507 52.0312 21.6119 52.0312H31.388C35.7492 52.0312 39.2098 52.0312 41.9194 51.6546C44.7151 51.2658 46.9734 50.4457 48.748 48.6098C50.5146 46.7827 51.2964 44.4716 51.6686 41.6088C52.0312 38.8182 52.0312 35.249 52.0312 30.7273V26.8971C52.0312 24.2535 52.0312 22.1454 51.8693 20.4217C51.7021 18.6429 51.3534 17.138 50.5794 15.7237C49.8037 14.3065 48.7298 13.2159 47.3314 12.145C45.9812 11.1109 44.2291 10.0237 42.0413 8.66591L37.1331 5.61974C34.821 4.18471 32.9697 3.03581 31.3673 2.25657C29.7098 1.45045 28.1817 0.96875 26.5 0.96875ZM17.6639 8.69728C20.0763 7.20006 21.7726 6.14988 23.1904 5.46035C24.572 4.78853 25.5505 4.53125 26.5 4.53125C27.4495 4.53125 28.428 4.78853 29.8096 5.46033C31.2274 6.14988 32.9237 7.20006 35.3362 8.69728L40.0862 11.6453C42.3681 13.0615 43.9703 14.0582 45.1654 14.9734C46.3282 15.8639 46.997 16.5988 47.4544 17.4343C47.9135 18.2727 48.1814 19.253 48.3224 20.755C48.4668 22.2929 48.4687 24.2338 48.4687 26.9843V30.5969C48.4687 35.2778 48.4652 38.6153 48.1358 41.1497C47.8123 43.6387 47.2029 45.0829 46.1868 46.1339C45.1791 47.1763 43.8069 47.7952 41.4288 48.126C38.993 48.4647 35.7803 48.4687 31.25 48.4687H21.75C17.2196 48.4687 14.0071 48.4647 11.5713 48.126C9.19304 47.7952 7.82096 47.1763 6.81313 46.1339C5.79715 45.0829 5.18775 43.6387 4.8642 41.1497C4.53479 38.6153 4.53125 35.2778 4.53125 30.5969V26.9843C4.53125 24.2338 4.53306 22.2929 4.67757 20.755C4.8187 19.253 5.08664 18.2727 5.54559 17.4343C6.00292 16.5988 6.67191 15.8639 7.83469 14.9734C9.02974 14.0582 10.6319 13.0615 12.9139 11.6453L17.6639 8.69728Z" fill="white"/>
    </svg>
    